<?xml version="1.0" encoding="utf-8"?>
<!-- Generator: Adobe Illustrator 27.5.0, SVG Export Plug-In . SVG Version: 6.00 Build 0)  -->
<svg version="1.1" xmlns="http://www.w3.org/2000/svg" xmlns:xlink="http://www.w3.org/1999/xlink" x="0px" y="0px"
	 viewBox="0 0 500 500" style="enable-background:new 0 0 500 500;" xml:space="preserve">
<g id="Background_Complete">
	<g>
		<rect y="382.398" style="fill:#EBEBEB;" width="500" height="0.25"/>
		<rect x="416.779" y="398.494" style="fill:#EBEBEB;" width="33.122" height="0.25"/>
		<rect x="322.527" y="401.208" style="fill:#EBEBEB;" width="8.693" height="0.25"/>
		<rect x="396.586" y="389.208" style="fill:#EBEBEB;" width="19.192" height="0.25"/>
		<rect x="52.459" y="390.888" style="fill:#EBEBEB;" width="43.193" height="0.25"/>
		<rect x="104.556" y="390.888" style="fill:#EBEBEB;" width="6.333" height="0.25"/>
		<rect x="131.471" y="395.111" style="fill:#EBEBEB;" width="93.676" height="0.25"/>
		<path style="fill:#EBEBEB;" d="M237.014,337.8H43.915c-3.147,0-5.708-2.561-5.708-5.708V60.66c0-3.147,2.561-5.708,5.708-5.708
			h193.099c3.146,0,5.707,2.561,5.707,5.708v271.432C242.721,335.239,240.16,337.8,237.014,337.8z M43.915,55.203
			c-3.01,0-5.458,2.448-5.458,5.458v271.432c0,3.01,2.448,5.458,5.458,5.458h193.099c3.009,0,5.457-2.448,5.457-5.458V60.66
			c0-3.009-2.448-5.458-5.457-5.458H43.915z"/>
		<path style="fill:#EBEBEB;" d="M453.31,337.8H260.212c-3.147,0-5.707-2.561-5.707-5.708V60.66c0-3.147,2.561-5.708,5.707-5.708
			H453.31c3.148,0,5.708,2.561,5.708,5.708v271.432C459.019,335.239,456.458,337.8,453.31,337.8z M260.212,55.203
			c-3.009,0-5.457,2.448-5.457,5.458v271.432c0,3.01,2.448,5.458,5.457,5.458H453.31c3.01,0,5.458-2.448,5.458-5.458V60.66
			c0-3.009-2.448-5.458-5.458-5.458H260.212z"/>
	</g>
	<g>
		<path style="fill:#E0E0E0;" d="M418.855,262.609L448.805,380h-25.907L418.855,262.609 M414.901,234.978L420,383h32.667
			L414.901,234.978L414.901,234.978z"/>
		<polygon style="fill:#E6E6E6;" points="424.019,382.905 339.583,382.905 358.59,167.647 443.025,167.647 		"/>
		<polygon style="fill:#F5F5F5;" points="437.54,173 419.43,378 345.43,378 348.55,342.66 351.12,314.93 359,226.93 359,226.9 
			363.54,173 		"/>
		<polygon style="fill:#FFFFFF;" points="388.99,173 388.96,173.12 351.01,314.93 358.78,226.93 373.2,173.13 373.23,173 		"/>
		<polygon style="fill:#FFFFFF;" points="400.72,173 400.69,173.12 345.86,378 345.43,378 348.55,342.66 393.94,173.12 393.97,173 
					"/>
	</g>
	<g>
		<g>
			<path style="fill:#E0E0E0;" d="M107.392,294.497c-2.307-3.8-6.107-0.495-6.107-0.495c0.543-7.281-6.156-12.262-6.156-12.262
				s7.785,0,8.87-7.427c1.086-7.427-2.714-3.973-6.28-4.023c-3.565-0.051-7.292,10.365-2.59,16.223
				c4.702,5.858,3.442,15.856-7.416,25.473c-2.648,2.346-4.449,5.469-5.666,8.848c0.819-8.835,1.282-21.283-1.318-29.594
				c-4.416-14.114,3.999-17.914,6.441-24.971c2.443-7.057-6.441-13.029-6.441-13.029s8.342-3.8,4.27-8.143
				c-4.072-4.343-12.486-3.752-12.486,1.924c0,5.676,5.7,7.848,5.7,7.848s6.514,6.786,6.514,10.314
				c0,3.529-6.514,11.129-6.514,11.129s2.986-6.505-2.986-6.781c-5.972-0.276-7.872,7.595-5.429,11.124
				c2.443,3.529,6.514,0.543,6.514,0.543s0.474,7.6,1.866,12.214c0.612,2.029,0.325,9.991-0.189,18.274
				c-1.203-2.991-2.904-5.731-5.288-7.843c-10.857-9.617-12.117-19.616-7.416-25.473c4.701-5.858,0.975-16.273-2.591-16.223
				c-3.565,0.051-7.365-3.404-6.28,4.023c1.086,7.427,8.87,7.427,8.87,7.427s-6.699,4.981-6.156,12.262c0,0-3.8-3.305-6.107,0.495
				c-4.119,6.785,5.428,10.993,7.033,7.654c0,0,20.246,14.332,15.36,34.961l1.135,1.675c-0.146,1.665-0.238,2.668-0.238,2.668
				l1.583-0.681l1.801,2.659c-0.093,5.157,0.461,8.967,0.461,8.967l4.84-7.145c-4.886-20.629,15.36-34.961,15.36-34.961
				C101.963,305.49,111.511,301.282,107.392,294.497z"/>
			<path style="opacity:0.2;fill:#E0E0E0;enable-background:new    ;" d="M107.392,294.497c-2.307-3.8-6.107-0.495-6.107-0.495
				c0.543-7.281-6.156-12.262-6.156-12.262s7.785,0,8.87-7.427c1.086-7.427-2.714-3.973-6.28-4.023
				c-3.565-0.051-7.292,10.365-2.59,16.223c4.702,5.858,3.442,15.856-7.416,25.473c-2.648,2.346-4.449,5.469-5.666,8.848
				c0.819-8.835,1.282-21.283-1.318-29.594c-4.416-14.114,3.999-17.914,6.441-24.971c2.443-7.057-6.441-13.029-6.441-13.029
				s8.342-3.8,4.27-8.143c-4.072-4.343-12.486-3.752-12.486,1.924c0,5.676,5.7,7.848,5.7,7.848s6.514,6.786,6.514,10.314
				c0,3.529-6.514,11.129-6.514,11.129s2.986-6.505-2.986-6.781c-5.972-0.276-7.872,7.595-5.429,11.124
				c2.443,3.529,6.514,0.543,6.514,0.543s0.474,7.6,1.866,12.214c0.612,2.029,0.325,9.991-0.189,18.274
				c-1.203-2.991-2.904-5.731-5.288-7.843c-10.857-9.617-12.117-19.616-7.416-25.473c4.701-5.858,0.975-16.273-2.591-16.223
				c-3.565,0.051-7.365-3.404-6.28,4.023c1.086,7.427,8.87,7.427,8.87,7.427s-6.699,4.981-6.156,12.262c0,0-3.8-3.305-6.107,0.495
				c-4.119,6.785,5.428,10.993,7.033,7.654c0,0,20.246,14.332,15.36,34.961l1.135,1.675c-0.146,1.665-0.238,2.668-0.238,2.668
				l1.583-0.681l1.801,2.659c-0.093,5.157,0.461,8.967,0.461,8.967l4.84-7.145c-4.886-20.629,15.36-34.961,15.36-34.961
				C101.963,305.49,111.511,301.282,107.392,294.497z"/>
		</g>
		<polygon style="fill:#E6E6E6;" points="103.431,382.493 57.056,382.493 52.053,331.719 108.434,331.719 		"/>
		<rect x="49.577" y="326.117" style="fill:#F0F0F0;" width="61.333" height="11.204"/>
	</g>
</g>
<g id="Background_Simple" style="display:none;">
	<g style="display:inline;">
		<path style="fill:#407BFF;" d="M90.306,114.311c-15.499,14.522-28.501,33.015-31.12,54.552
			c-4.913,40.402,25.815,66.755,63.034,72.986c26.622,4.457,54.054,1.044,80.48,7.074c23.949,5.464,41.25,21.795,54.152,41.983
			c16.048,25.112,26.511,55.136,47.628,77.126c26.081,27.16,66.219,31.594,100.12,16.891c26.13-11.332,45.642-36.669,47.603-65.392
			c2.138-31.313-17.542-55.728-42.805-71.649c-32.166-20.27-88.068-21.971-107.398-58.509c-6.491-12.27-6.669-26.75-9.189-40.401
			c-4.882-26.44-19.931-51.585-43.023-65.359c-34.408-20.523-77.634-15.469-112.823,0.282
			C120.803,91.13,104.119,101.368,90.306,114.311z"/>
		<path style="opacity:0.9;fill:#FFFFFF;enable-background:new    ;" d="M90.306,114.311c-15.499,14.522-28.501,33.015-31.12,54.552
			c-4.913,40.402,25.815,66.755,63.034,72.986c26.622,4.457,54.054,1.044,80.48,7.074c23.949,5.464,41.25,21.795,54.152,41.983
			c16.048,25.112,26.511,55.136,47.628,77.126c26.081,27.16,66.219,31.594,100.12,16.891c26.13-11.332,45.642-36.669,47.603-65.392
			c2.138-31.313-17.542-55.728-42.805-71.649c-32.166-20.27-88.068-21.971-107.398-58.509c-6.491-12.27-6.669-26.75-9.189-40.401
			c-4.882-26.44-19.931-51.585-43.023-65.359c-34.408-20.523-77.634-15.469-112.823,0.282
			C120.803,91.13,104.119,101.368,90.306,114.311z"/>
	</g>
</g>
<g id="Shadow_1_">
	<ellipse id="_x3C_Path_x3E__359_" style="fill:#F5F5F5;" cx="250" cy="416.238" rx="193.889" ry="11.323"/>
</g>
<g id="Phone">
	<g>
		<g>
			<path style="fill:#407BFF;" d="M270.051,407.245H112.629c-5.385,0-9.751-4.366-9.751-9.751V98.772
				c0-5.385,4.366-9.751,9.751-9.751h157.422c5.385,0,9.751,4.366,9.751,9.751v298.721
				C279.802,402.879,275.436,407.245,270.051,407.245z"/>
			<path style="opacity:0.2;enable-background:new    ;" d="M270.051,407.245H112.629c-5.385,0-9.751-4.366-9.751-9.751V98.772
				c0-5.385,4.366-9.751,9.751-9.751h157.422c5.385,0,9.751,4.366,9.751,9.751v298.721
				C279.802,402.879,275.436,407.245,270.051,407.245z"/>
			<path style="fill:#407BFF;" d="M277.555,407.245H120.133c-5.385,0-9.751-4.366-9.751-9.751V98.772
				c0-5.385,4.366-9.751,9.751-9.751h157.422c5.385,0,9.751,4.366,9.751,9.751v298.721
				C287.306,402.879,282.94,407.245,277.555,407.245z"/>
			<path style="fill:#263238;" d="M281,99.685v296.333c0,2.437-1.564,3.982-4.002,3.982h-156.66c-2.24,0-3.339-1.386-3.339-3.626
				V99.329c0-1.94,0.836-3.329,2.777-3.329h39.165c1.106,0,2.109,0.568,2.522,1.608l1.622,3.821
				c0.412,1.031,1.415,1.571,2.522,1.571h66.678c1.106,0,2.109-0.589,2.522-1.62l1.622-3.81c0.412-1.041,1.415-1.57,2.522-1.57
				h38.602C279.689,96.001,281,97.548,281,99.685z"/>
			<g>
				
					<rect x="135.017" y="104.913" transform="matrix(-1 -1.224647e-16 1.224647e-16 -1 272.0711 212.5437)" style="opacity:0.6;fill:#FFFFFF;enable-background:new    ;" width="2.038" height="2.717"/>
				
					<rect x="131.695" y="104.007" transform="matrix(-1 -1.224647e-16 1.224647e-16 -1 265.4289 211.6374)" style="opacity:0.6;fill:#FFFFFF;enable-background:new    ;" width="2.038" height="3.623"/>
				
					<rect x="128.374" y="103.101" transform="matrix(-1 -1.224647e-16 1.224647e-16 -1 258.7866 210.7311)" style="opacity:0.6;fill:#FFFFFF;enable-background:new    ;" width="2.038" height="4.529"/>
				
					<rect x="125.053" y="102.195" transform="matrix(-1 -1.224647e-16 1.224647e-16 -1 252.1444 209.8247)" style="opacity:0.6;fill:#FFFFFF;enable-background:new    ;" width="2.038" height="5.436"/>
			</g>
			<g>
				<rect x="261.939" y="103.922" style="opacity:0.6;fill:#FFFFFF;enable-background:new    ;" width="1.208" height="2.717"/>
				
					<rect x="263.977" y="102.931" transform="matrix(-1 -1.224647e-16 1.224647e-16 -1 537.5777 210.5608)" style="opacity:0.6;fill:#FFFFFF;enable-background:new    ;" width="9.624" height="4.7"/>
			</g>
			<circle style="opacity:0.6;fill:#FFFFFF;enable-background:new    ;" cx="195.164" cy="96.078" r="2.264"/>
			<path style="opacity:0.6;fill:#FFFFFF;enable-background:new    ;" d="M202.011,96.078c0,0.801-0.65,1.451-1.451,1.451
				c-0.801,0-1.451-0.649-1.451-1.451s0.649-1.451,1.451-1.451C201.362,94.628,202.011,95.277,202.011,96.078z"/>
		</g>
		<g>
			<rect x="117" y="115.001" style="fill:#FFFFFF;" width="164" height="271.288"/>
			<g>
				<rect x="117" y="115.001" style="fill:#407BFF;" width="164" height="46"/>
				<rect x="117" y="115.001" style="opacity:0.4;fill:#FFFFFF;enable-background:new    ;" width="164" height="46"/>
			</g>
			<g>
				<path style="fill:#2E353A;" d="M209.39,173.193c0,0-5.841,0.547-8.199,7.606c-2.358,7.059,0.349,12.889,1.353,14.588
					c1.005,1.699-4.027,7.199,2.814,12.601c6.841,5.402,2.908,11.759,2.908,11.759l23.789,3.272c0,0,3.589-1.856,3.384-6.666
					c-0.205-4.81-3.589-6.245-3.691-9.732c-0.103-3.486,2.153-6.288,1.23-10.937c-0.923-4.649-4.614-4.23-3.691-9.105
					c0.501-2.646,1.464-8.42-3.076-12.053C222.387,171.469,213.42,169.911,209.39,173.193z"/>
				<path style="fill:#EBB376;" d="M246.808,232.963c-5.151,2.559-14.61-4.815-19.655-9.311c-2.059-1.829-3.388-3.183-3.388-3.183
					l2.494-7.055l0.96-2.699c3.298,2.059,12.854,14.265,15.701,14.265c2.855,0-3.076-19.507-3.076-19.507l4.003-1.362
					C243.847,204.113,256.595,228.107,246.808,232.963z"/>
				<path style="opacity:0.2;enable-background:new    ;" d="M227.154,223.653c-2.059-1.829-3.388-3.183-3.388-3.183l2.494-7.055
					C226.26,213.415,228.097,218.247,227.154,223.653z"/>
				<polygon style="opacity:0.2;enable-background:new    ;" points="239.042,380.894 232.954,381.696 230.896,374.783 
					237.19,372.545 				"/>
				<polygon style="opacity:0.2;enable-background:new    ;" points="203.829,383.068 197.695,382.799 196.87,375.633 
					203.457,374.524 				"/>
				<g>
					<path style="fill:#407BFF;" d="M239.557,376.559l-8.982,1.583c-9.064-22.583-15.512-41.434-20.065-57.077
						c-2.453-8.441-3.908-15.947-5.376-22.608L206,323.042v55.959h-10.035c-22.189-106-6.464-130.059-6.464-130.059l26.545-4.564
						c1.009,3.962,1.772,10.371,2.223,14.842l1.197,8.77l10.377,53.579L239.557,376.559z"/>
				</g>
				<polygon style="fill:#407BFF;" points="229.166,377.032 240.308,373.338 240.157,378.078 230.943,381.017 				"/>
				<polygon style="fill:#407BFF;" points="194.775,377.547 206.389,375.847 205.417,380.488 195.832,381.78 				"/>
				<polygon style="fill:#2E353A;" points="190.689,244.968 189.157,249.328 217.562,253.029 217.158,249.185 				"/>
				<polygon style="fill:#FFFFFF;" points="210.055,252.051 204.33,251.305 204.812,247.221 210.714,247.913 				"/>
				<g>
					
						<rect x="197.339" y="245.532" transform="matrix(0.988 0.1544 -0.1544 0.988 40.8005 -27.5802)" style="fill:#407BFF;" width="1.344" height="6.848"/>
				</g>
				<g>
					<polygon style="fill:#407BFF;" points="215.441,254.164 213.885,253.921 214.435,247.076 215.764,247.283 					"/>
				</g>
				<g>
					<path style="fill:#407BFF;" d="M217.158,249.185l-26.469-4.217c1.427-6.587,2.419-11.644,2.662-19.915
						c0.085-2.671,0.094-5.678,0.006-9.182c-0.048-1.873-0.116-3.887-0.214-6.064c-0.069-1.648-0.151-3.403-0.263-5.259
						c3.864-0.122,7.719,0.026,11.553,0.458c4.054,0.409,8.084,1.11,12.044,2.09c5.077,1.399,10.74,3.621,10.74,3.621
						s0.772,0.432-0.232,5.954C226.026,221.847,223.409,231.134,217.158,249.185z"/>
					<path style="opacity:0.6;fill:#FFFFFF;enable-background:new    ;" d="M226.981,216.672c-0.96,5.176-3.576,14.462-9.827,32.517
						l-26.463-4.225c1.427-6.587,2.42-11.64,2.658-19.909c0.066-2.018,0.09-4.225,0.057-6.702c-0.008-0.804-0.025-1.624-0.049-2.486
						c-0.049-1.87-0.115-3.88-0.213-6.062c0-0.057-0.008-0.115-0.008-0.18c-0.074-1.591-0.148-3.289-0.254-5.078
						c1.009-0.033,2.018-0.049,3.027-0.033c2.846,0.008,5.693,0.172,8.523,0.492c4.053,0.41,8.088,1.107,12.042,2.092
						c3.117,0.853,6.456,2.026,8.572,2.797c0.008,0.008,0.016,0.008,0.016,0.008c1.321,0.484,2.157,0.812,2.157,0.812
						S227.99,211.151,226.981,216.672z"/>
				</g>
				<path style="fill:#EBB376;" d="M215.841,208.124c0.632,2.92-3.15,4.11-3.15,4.11c-6.185-2.641-7.334-5.931-7.334-5.931
					c5.16-2.691,3.667-10.303,3.667-10.303l1.05,0.517l6.267,3.117c-0.558,1.206-0.943,2.248-1.214,3.142
					c0,0.008-0.008,0.016-0.008,0.025C213.733,207.476,215.841,208.124,215.841,208.124z"/>
				<path style="opacity:0.2;enable-background:new    ;" d="M210.51,321.065c-2.453-8.441-4.364-15.947-5.832-22.608
					c0,0,0.148-12.944,1.715-23.576C206.392,274.881,210.28,305.29,210.51,321.065z"/>
				<path style="fill:#EBB376;" d="M225.062,209.904c-0.123,0.607-1.551,2.305-4.856,3.183c-0.476,0.131-0.984,0.238-1.542,0.328
					c-1.739,0.271-3.872,0.32-6.464-0.025c-2.879-0.386-5.627-1.214-8.006-2.231c-0.451-0.189-0.878-0.385-1.296-0.582
					c-4.471-2.141-7.366-4.832-6.989-6.062c2.215,0.008,4.43,0.107,6.636,0.304c0.468,0.041,0.935,0.082,1.403,0.139
					c0.164,0.017,0.32,0.033,0.484,0.049c4.053,0.41,8.088,1.107,12.042,2.092c0.64,0.172,1.288,0.361,1.928,0.566
					c0.427,0.123,0.845,0.254,1.263,0.385c2.051,0.648,3.987,1.337,5.381,1.846C225.054,209.904,225.062,209.904,225.062,209.904z"
					/>
				<path style="fill:#2E353A;" d="M204.193,211.159c-0.451-0.189-0.878-0.385-1.296-0.582c0.492-2.609,0.057-4.602-0.353-5.759
					c0.468,0.041,0.935,0.082,1.403,0.139C204.546,206.844,204.406,209.387,204.193,211.159z"/>
				<path style="fill:#2E353A;" d="M220.206,213.087c-0.476,0.131-0.984,0.238-1.542,0.328c0.443-2.748,0.107-4.643-0.263-5.75
					c0.427,0.123,0.845,0.254,1.263,0.385C220.263,209.535,220.345,211.356,220.206,213.087z"/>
				<path style="opacity:0.2;enable-background:new    ;" d="M216.342,199.634c-0.558,1.206-0.943,2.248-1.214,3.142
					c-3.052-1.509-4.454-4.438-5.053-6.259L216.342,199.634z"/>
				<g>
					<path style="fill:#EBB376;" d="M216.02,175.968c6.992,0.073,9.204,3.84,9.641,11.05c0.547,9.011-1.516,15.388-10.239,13.374
						C203.576,197.658,204.408,175.848,216.02,175.968z"/>
					<path style="fill:#D58745;" d="M221.145,186.581c0,0,0.95,1.837,2.005,2.921c0,0-0.608,0.945-1.852,0.772L221.145,186.581z"/>
					<g>
						<path style="fill:#2E353A;" d="M216.871,185.965c0.007,0.575-0.297,1.044-0.68,1.049c-0.383,0.005-0.699-0.457-0.707-1.031
							c-0.007-0.574,0.297-1.044,0.68-1.049C216.547,184.929,216.864,185.39,216.871,185.965z"/>
						<path style="fill:#2E353A;" d="M216.005,184.963l1.243-0.506C217.248,184.457,216.64,185.517,216.005,184.963z"/>
					</g>
					<g>
						<path style="fill:#2E353A;" d="M224.012,185.752c0.007,0.575-0.297,1.044-0.68,1.049c-0.383,0.005-0.7-0.457-0.707-1.031
							c-0.007-0.575,0.297-1.044,0.68-1.049C223.688,184.716,224.004,185.178,224.012,185.752z"/>
						<path style="fill:#2E353A;" d="M223.145,184.751l1.243-0.506C224.388,184.245,223.78,185.304,223.145,184.751z"/>
					</g>
					
						<path style="fill:none;stroke:#2E353A;stroke-width:0.5945;stroke-linecap:round;stroke-linejoin:round;stroke-miterlimit:10;" d="
						M216.851,181.136c0,0-1.962-0.276-3.043,1.026"/>
					
						<path style="fill:none;stroke:#2E353A;stroke-width:0.5945;stroke-linecap:round;stroke-linejoin:round;stroke-miterlimit:10;" d="
						M221.937,180.893c0,0,1.24-0.445,2.781,0.604"/>
					<path style="fill:#2E353A;" d="M220.25,193.014c-0.413,0.839-0.841,2.42-0.841,2.42c-0.15-0.013-0.301-0.026-0.45-0.047
						c-2.033-0.227-2.901-1.004-3.247-1.796c-0.188-0.434-0.214-0.878-0.188-1.235c0.025-0.413,0.137-0.701,0.137-0.701
						c1.006,0.764,2.885,1.122,3.897,1.27C219.981,192.993,220.25,193.014,220.25,193.014z"/>
					<path style="fill:#FFFFFF;" d="M219.558,192.926l-0.266,0.707c-1.914-0.218-3.233-0.629-3.768-1.277
						c0.025-0.413,0.137-0.701,0.137-0.701C216.667,192.42,218.546,192.777,219.558,192.926z"/>
					<path style="fill:#DE5753;" d="M218.959,195.387c-2.033-0.227-2.901-1.004-3.247-1.796c0.69,0.104,1.51,0.306,2.208,0.699
						C218.454,194.589,218.766,194.992,218.959,195.387z"/>
					<path style="fill:#2E353A;" d="M208.256,187.674c0,0,3.329-5.711,2.88-10.151c0,0,13.915-5.517,14.453,8.555
						c0,0,1.483-12.474-10.534-12.877c-11.998-0.403-12.148,17.182-5.995,22.486C209.059,195.686,206.196,191.246,208.256,187.674z"
						/>
					<path style="fill:#EBB376;" d="M209.382,189.162c-0.035-1.126-1.177-3.044-3.273-2.837c-2.169,0.214-3.248,4.652,2.13,5.777
						C209.012,192.263,209.456,191.512,209.382,189.162z"/>
				</g>
				<path style="fill:#2E353A;" d="M210.469,177.297c-0.264,0.244,1.527,1.373,1.639,1.422c1.348,0.589,2.777,0.456,4.182,0.186
					c1.503-0.289,3.707-1.126,4.923,0.284c1.056,1.224,0.297,3.132,1.448,4.302c1.297,1.317,3.728,0.593,4.573,2.483
					c0.582,1.3,0.551,2.375,0.497,3.735c2.47-2.806,1.639-7.367,0.103-10.362C224.467,172.785,215.648,172.513,210.469,177.297z"/>
				<g>
					<path style="fill:#407BFF;" d="M227.48,184.906c-0.039-0.026-0.961-0.637-2.637-0.637c-1.676,0-2.599,0.611-2.637,0.637
						c-0.032,0.022-0.056,0.052-0.079,0.082c-0.605-0.286-1.248-0.186-1.744,0.029c-0.03-0.043-0.068-0.081-0.114-0.11
						c-0.041-0.026-1.021-0.637-2.802-0.637s-2.761,0.865-2.802,0.891c-0.024,0.015-0.04,0.311-0.06,0.311h-5.63
						c-0.56,0-1.107,0.032-1.564,0.274c-0.244,0.129-0.293,0.457-0.09,0.643l0,0c0.139,0.128,0.349,0.137,0.499,0.022
						c0.331-0.253,0.738-0.405,1.155-0.405h5.909c0.224,1.603,0.641,2.82,2.584,2.82c1.769,0,2.347-0.977,2.901-2.802
						c0.214-0.147,1.079-0.694,1.725-0.035c0.366,1.593,0.993,2.745,2.751,2.745c1.754,0,2.173-1.048,2.442-3.137
						c0.001-0.006-0.002-0.126-0.001-0.126c0,0,0.001,0,0.001,0c0.126,0,0.249,0.032,0.32-0.097
						C227.713,185.178,227.657,185.025,227.48,184.906z"/>
					<path style="opacity:0.3;enable-background:new    ;" d="M227.48,184.906c-0.039-0.026-0.961-0.637-2.637-0.637
						c-1.676,0-2.599,0.611-2.637,0.637c-0.032,0.022-0.056,0.052-0.079,0.082c-0.605-0.286-1.248-0.186-1.744,0.029
						c-0.03-0.043-0.068-0.081-0.114-0.11c-0.041-0.026-1.021-0.637-2.802-0.637s-2.761,0.865-2.802,0.891
						c-0.024,0.015-0.04,0.311-0.06,0.311h-5.63c-0.56,0-1.107,0.032-1.564,0.274c-0.244,0.129-0.293,0.457-0.09,0.643l0,0
						c0.139,0.128,0.349,0.137,0.499,0.022c0.331-0.253,0.738-0.405,1.155-0.405h5.909c0.224,1.603,0.641,2.82,2.584,2.82
						c1.769,0,2.347-0.977,2.901-2.802c0.214-0.147,1.079-0.694,1.725-0.035c0.366,1.593,0.993,2.745,2.751,2.745
						c1.754,0,2.173-1.048,2.442-3.137c0.001-0.006-0.002-0.126-0.001-0.126c0,0,0.001,0,0.001,0c0.126,0,0.249,0.032,0.32-0.097
						C227.713,185.178,227.657,185.025,227.48,184.906z"/>
					<path style="fill:#407BFF;" d="M217.85,184.911l-1.223,3.221c0,0-1.2-0.12-1.277-2.478
						C215.349,185.654,216.178,184.748,217.85,184.911z"/>
					<path style="fill:#407BFF;" d="M225.232,184.911l-1.223,3.221c0,0-1.2-0.12-1.277-2.478
						C222.732,185.654,223.561,184.748,225.232,184.911z"/>
				</g>
				<path style="fill:#EBB376;" d="M239.843,205.475c0,0-1.944-1.625-1.841-2.7c0.102-1.075,7.178-6.316,8.203-6.259
					c1.025,0.057,3.384,1.493,3.589,2.211c0.205,0.718-5.947,5.389-5.947,5.389L239.843,205.475z"/>
				<path style="fill:#407BFF;" d="M208.146,224.692l3.039-4.086c0.332-0.446,1.032-0.318,1.184,0.217l1.394,4.898
					c0.06,0.212,0.221,0.382,0.431,0.452l4.825,1.628c0.527,0.178,0.621,0.883,0.16,1.193l-4.227,2.839
					c-0.183,0.123-0.294,0.329-0.297,0.549l-0.057,5.092c-0.006,0.556-0.647,0.864-1.085,0.52l-4.007-3.143
					c-0.174-0.136-0.403-0.178-0.614-0.112l-4.861,1.519c-0.531,0.166-1.021-0.349-0.83-0.871l1.751-4.782
					c0.076-0.207,0.045-0.439-0.083-0.619l-2.947-4.153c-0.322-0.454,0.016-1.079,0.572-1.059l5.089,0.188
					C207.803,224.97,208.014,224.869,208.146,224.692z"/>
				<polygon style="opacity:0.6;fill:#FFFFFF;enable-background:new    ;" points="194.775,377.547 206.389,375.847 
					205.417,380.488 195.832,381.78 				"/>
				<polygon style="opacity:0.6;fill:#FFFFFF;enable-background:new    ;" points="229.166,377.032 240.308,373.338 
					240.157,378.078 230.943,381.017 				"/>
				
					<path style="fill:none;stroke:#2E353A;stroke-width:0.4102;stroke-linecap:round;stroke-linejoin:round;stroke-miterlimit:10;" d="
					M224.388,174.023c4.385,2.146,7.257,4.846,5.718,14.109s5.148,7.737,4.307,15.313c-0.842,7.576,3.701,6.768,2.722,13.433"/>
				<path style="opacity:0.2;enable-background:new    ;" d="M193.406,218.353c-0.008-0.804-0.025-1.624-0.049-2.486
					c-0.049-1.87-0.115-3.88-0.213-6.062c0-0.057-0.008-0.115-0.008-0.18l1.485-0.55
					C194.776,212.185,194.538,215.933,193.406,218.353z"/>
				<path style="fill:none;stroke:#407BFF;stroke-width:0.8203;stroke-linecap:round;stroke-miterlimit:10;" d="M173.969,225.527
					c0.798,5.231-2.53,14.083-7.089,22.265"/>
				<path style="fill:none;stroke:#407BFF;stroke-width:0.8203;stroke-linecap:round;stroke-miterlimit:10;" d="M174.796,228.42
					c2.643,4.585,2.755,14.041,1.478,23.32"/>
				<path style="fill:#EBB376;" d="M194.63,209.773c-0.016,0.462-0.075,0.924-0.183,1.382c-0.103,0.436-0.649,2.997-1.091,3.072
					c0,0-2.125,0.361-5.004,1.001c-5.718,1.255-14.413,5.209-15.463,7.793c-2.1,5.193,12.608,17.645,12.608,17.645l-3.913,3.15
					c0,0-16.283-11.156-17.924-20.795c-1.641-9.639,19.687-18.038,29.219-18.473c0.392-0.018,0.995,1.496,1.092,1.736
					C194.424,207.398,194.671,208.586,194.63,209.773z"/>
				<path style="fill:none;stroke:#407BFF;stroke-width:0.8203;stroke-linecap:round;stroke-miterlimit:10;" d="M157.82,248.136
					c0,0,2.931-19.571,10.558-22.18c2.946-1.008,5.031,0.057,6.418,2.464"/>
				<path style="fill:none;stroke:#407BFF;stroke-width:0.8203;stroke-linecap:round;stroke-miterlimit:10;" d="M150.993,237.735
					c0,0,9.836-17.172,17.89-16.834c3.111,0.131,4.667,1.879,5.086,4.626"/>
				<g>
					<polygon style="fill:#407BFF;" points="149.58,235.423 169.499,247.849 154.193,278.944 129.568,263.628 					"/>
					<polygon style="opacity:0.3;enable-background:new    ;" points="149.58,235.423 133.91,263.779 154.193,278.944 
						129.568,263.628 					"/>
				</g>
				<g>
					<polygon style="fill:#407BFF;" points="155.663,246.495 178.735,250.843 175.761,285.373 147.255,280.041 					"/>
					<polygon style="opacity:0.3;enable-background:new    ;" points="155.663,246.495 178.735,250.843 175.761,285.373 
						147.255,280.041 					"/>
					<polygon style="opacity:0.3;enable-background:new    ;" points="155.663,246.495 151.357,278.605 175.761,285.373 
						147.255,280.041 					"/>
				</g>
				<path style="fill:#EBB376;" d="M179.965,235.949l5.537,4.717c0,0,1.948-0.592,2.974,3.814c1.025,4.406,1.23,6.85-2.358,7.978
					c-3.589,1.128-4.819,1.128-4.819,0s1.201-7.831,1.201-7.831l-5.405-4.781L179.965,235.949z"/>
			</g>
			<circle style="fill:#407BFF;" cx="140.664" cy="139.115" r="15.611"/>
			<g>
				<rect x="117" y="354.416" style="fill:#407BFF;" width="164" height="31.872"/>
				<rect x="117" y="354.416" style="opacity:0.4;fill:#FFFFFF;enable-background:new    ;" width="164" height="31.872"/>
			</g>
			<g>
				<path style="fill:#FFFFFF;" d="M185.917,133.544c0,1.105-0.815,2.005-2.483,2.005c-0.937,0-1.855-0.3-2.408-0.796l0.431-0.74
					c0.44,0.412,1.171,0.703,1.977,0.703c0.984,0,1.546-0.45,1.546-1.162c0-0.693-0.497-1.143-1.621-1.143h-0.525v-0.656
					l1.649-2.024h-3.157v-0.815h4.329v0.637l-1.715,2.118C185.252,131.792,185.917,132.532,185.917,133.544z"/>
				<path style="fill:#FFFFFF;" d="M192.497,133.862h-1.246v1.611h-0.909v-1.611h-3.645v-0.656l3.354-4.291h1.012l-3.213,4.141
					h2.521v-1.424h0.88v1.424h1.246V133.862z"/>
				<path style="fill:#FFFFFF;" d="M197.438,133.544c0,1.105-0.815,2.005-2.483,2.005c-0.937,0-1.855-0.3-2.408-0.796l0.431-0.74
					c0.44,0.412,1.171,0.703,1.977,0.703c0.984,0,1.546-0.45,1.546-1.162c0-0.693-0.497-1.143-1.621-1.143h-0.525v-0.656
					l1.649-2.024h-3.157v-0.815h4.329v0.637l-1.715,2.118C196.773,131.792,197.438,132.532,197.438,133.544z"/>
			</g>
			<g>
				<path style="fill:#FFFFFF;" d="M216.335,128.916v6.558h-0.928v-5.743h-1.48v-0.815H216.335z"/>
				<path style="fill:#FFFFFF;" d="M222.848,133.478c0,1.265-1.021,2.07-2.324,2.07c-1.761,0-2.754-1.18-2.754-3.269
					c0-2.239,1.265-3.439,3.101-3.439c0.618,0,1.209,0.122,1.63,0.384l-0.356,0.731c-0.337-0.225-0.787-0.31-1.256-0.31
					c-1.33,0-2.183,0.834-2.183,2.474c0,0.075,0,0.15,0.009,0.234c0.375-0.563,1.068-0.862,1.883-0.862
					C221.902,131.492,222.848,132.27,222.848,133.478z M221.939,133.516c0-0.769-0.581-1.265-1.499-1.265
					c-0.89,0-1.508,0.553-1.508,1.274c0,0.675,0.544,1.265,1.555,1.265C221.339,134.79,221.939,134.293,221.939,133.516z"/>
				<path style="fill:#FFFFFF;" d="M225.587,128.916v6.558h-0.928v-5.743h-1.48v-0.815H225.587z"/>
				<path style="fill:#FFFFFF;" d="M229.692,132.56l-1.199,1.218v1.696h-0.937v-6.558h0.937v3.663l3.561-3.663h1.068l-2.801,2.951
					l2.98,3.607h-1.096L229.692,132.56z"/>
			</g>
			<g>
				<path style="fill:#FFFFFF;" d="M254.477,128.916v0.637l-2.651,5.921h-0.993l2.595-5.743h-2.998v1.171h-0.899v-1.986H254.477z"/>
				<path style="fill:#FFFFFF;" d="M260.195,133.478c0,1.265-1.022,2.07-2.324,2.07c-1.761,0-2.754-1.18-2.754-3.269
					c0-2.239,1.265-3.439,3.101-3.439c0.618,0,1.208,0.122,1.63,0.384l-0.356,0.731c-0.337-0.225-0.787-0.31-1.256-0.31
					c-1.33,0-2.183,0.834-2.183,2.474c0,0.075,0,0.15,0.009,0.234c0.374-0.563,1.068-0.862,1.883-0.862
					C259.249,131.492,260.195,132.27,260.195,133.478z M259.286,133.516c0-0.769-0.581-1.265-1.499-1.265
					c-0.89,0-1.508,0.553-1.508,1.274c0,0.675,0.543,1.265,1.555,1.265C258.686,134.79,259.286,134.293,259.286,133.516z"/>
				<path style="fill:#FFFFFF;" d="M265.979,133.478c0,1.265-1.022,2.07-2.324,2.07c-1.761,0-2.754-1.18-2.754-3.269
					c0-2.239,1.265-3.439,3.101-3.439c0.618,0,1.208,0.122,1.63,0.384l-0.356,0.731c-0.337-0.225-0.787-0.31-1.256-0.31
					c-1.33,0-2.183,0.834-2.183,2.474c0,0.075,0,0.15,0.009,0.234c0.375-0.563,1.068-0.862,1.883-0.862
					C265.033,131.492,265.979,132.27,265.979,133.478z M265.07,133.516c0-0.769-0.581-1.265-1.499-1.265
					c-0.89,0-1.508,0.553-1.508,1.274c0,0.675,0.543,1.265,1.555,1.265C264.47,134.79,265.07,134.293,265.07,133.516z"/>
			</g>
			<path style="fill:#407BFF;" d="M220.406,155.919h-40.141c-0.845,0-1.531-0.685-1.531-1.531v-4.439
				c0-0.845,0.685-1.531,1.531-1.531h40.141c0.845,0,1.531,0.685,1.531,1.531v4.439
				C221.937,155.234,221.251,155.919,220.406,155.919z"/>
			<path style="fill:#407BFF;" d="M267.306,155.919h-40.141c-0.845,0-1.531-0.685-1.531-1.531v-4.439
				c0-0.845,0.685-1.531,1.531-1.531h40.141c0.845,0,1.531,0.685,1.531,1.531v4.439
				C268.836,155.234,268.151,155.919,267.306,155.919z"/>
			<path style="opacity:0.6;fill:#FFFFFF;enable-background:new    ;" d="M220.406,155.919h-40.141
				c-0.845,0-1.531-0.685-1.531-1.531v-4.439c0-0.845,0.685-1.531,1.531-1.531h40.141c0.845,0,1.531,0.685,1.531,1.531v4.439
				C221.937,155.234,221.251,155.919,220.406,155.919z"/>
			<path style="opacity:0.6;fill:#FFFFFF;enable-background:new    ;" d="M267.306,155.919h-40.141
				c-0.845,0-1.531-0.685-1.531-1.531v-4.439c0-0.845,0.685-1.531,1.531-1.531h40.141c0.845,0,1.531,0.685,1.531,1.531v4.439
				C268.836,155.234,268.151,155.919,267.306,155.919z"/>
			<g>
				<path style="fill:#407BFF;" d="M150.115,376.353h-9.372c-1.011,0-1.831-0.82-1.831-1.831v-9.372c0-1.011,0.82-1.831,1.831-1.831
					h9.372c1.011,0,1.83,0.82,1.83,1.831v9.372C151.945,375.534,151.126,376.353,150.115,376.353z"/>
				<path style="fill:#407BFF;" d="M186.384,376.353h-9.372c-1.011,0-1.831-0.82-1.831-1.831v-9.372c0-1.011,0.82-1.831,1.831-1.831
					h9.372c1.011,0,1.83,0.82,1.83,1.831v9.372C188.214,375.534,187.395,376.353,186.384,376.353z"/>
				<path style="fill:#407BFF;" d="M222.653,376.353h-9.372c-1.011,0-1.831-0.82-1.831-1.831v-9.372c0-1.011,0.82-1.831,1.831-1.831
					h9.372c1.011,0,1.831,0.82,1.831,1.831v9.372C224.484,375.534,223.664,376.353,222.653,376.353z"/>
				<path style="fill:#407BFF;" d="M258.922,376.353h-9.372c-1.011,0-1.83-0.82-1.83-1.831v-9.372c0-1.011,0.819-1.831,1.83-1.831
					h9.372c1.011,0,1.831,0.82,1.831,1.831v9.372C260.753,375.534,259.933,376.353,258.922,376.353z"/>
			</g>
			<g style="opacity:0.6;enable-background:new    ;">
				<path style="fill:#FFFFFF;" d="M150.115,376.353h-9.372c-1.011,0-1.831-0.82-1.831-1.831v-9.372c0-1.011,0.82-1.831,1.831-1.831
					h9.372c1.011,0,1.83,0.82,1.83,1.831v9.372C151.945,375.534,151.126,376.353,150.115,376.353z"/>
				<path style="fill:#FFFFFF;" d="M186.384,376.353h-9.372c-1.011,0-1.831-0.82-1.831-1.831v-9.372c0-1.011,0.82-1.831,1.831-1.831
					h9.372c1.011,0,1.83,0.82,1.83,1.831v9.372C188.214,375.534,187.395,376.353,186.384,376.353z"/>
				<path style="fill:#FFFFFF;" d="M222.653,376.353h-9.372c-1.011,0-1.831-0.82-1.831-1.831v-9.372c0-1.011,0.82-1.831,1.831-1.831
					h9.372c1.011,0,1.831,0.82,1.831,1.831v9.372C224.484,375.534,223.664,376.353,222.653,376.353z"/>
				<path style="fill:#FFFFFF;" d="M258.922,376.353h-9.372c-1.011,0-1.83-0.82-1.83-1.831v-9.372c0-1.011,0.819-1.831,1.83-1.831
					h9.372c1.011,0,1.831,0.82,1.831,1.831v9.372C260.753,375.534,259.933,376.353,258.922,376.353z"/>
			</g>
		</g>
	</g>
</g>
<g id="Bubble">
	<g>
		<path style="fill:#407BFF;" d="M407.157,154.842h-19c-2.243,0-4.061-1.818-4.061-4.061v-19c0-2.243,1.818-4.061,4.061-4.061h19
			c2.243,0,4.061,1.818,4.061,4.061v19C411.218,153.023,409.4,154.842,407.157,154.842z"/>
		<path style="fill:#FFFFFF;" d="M404.595,135.941c-2.921-3.425-6.72,1.881-6.72,1.881s-3.798-5.306-6.72-1.881
			c-2.624,3.077,2.048,9.243,6.72,11.934C402.549,145.184,407.22,139.018,404.595,135.941z"/>
		<path style="fill:#407BFF;" d="M392.375,154.001c0,0-0.25,4.375-5.375,8.25c0,0,6.292-1.833,9.375-8.25H392.375z"/>
	</g>
</g>
<g id="Character">
	<g>
		<path style="fill:#EBB376;" d="M386,197.876l-3.875-11.93c0,0-0.835-0.789-1.105-1.805c-0.27-1.015,0.48-9.265,0.98-9.89
			s7-1.125,7.75-0.75s-1,8.125-1.125,9.25s-1.125,2.694-1.125,2.694l4.125,10.396L386,197.876z"/>
		<g>
			<path style="fill:#407BFF;" d="M392.167,224.103c-6.28,3.12-21.183-4.622-27.333-10.103c-2.51-2.23-4.544-3.932-4.544-3.932
				l4.521-12.788l1.17-3.29c4.02,2.51,14.716,14.51,18.187,14.51c3.48,0-3.147-16.167-3.147-16.167l10.313-2
				C391.333,190.334,404.097,218.183,392.167,224.103z"/>
			<path style="opacity:0.5;fill:#FFFFFF;enable-background:new    ;" d="M392.17,224.101c-5.72,2.84-18.59-3.32-25.49-8.58
				c-0.68-0.52-1.3-1.03-1.85-1.52c-2.51-2.23-4.54-3.93-4.54-3.93l2.44-6.91l2.08-5.88l1.17-3.29
				c4.02,2.51,14.72,14.51,18.19,14.51c3.48,0-3.15-16.17-3.15-16.17l10.31-2C391.33,190.331,404.1,218.181,392.17,224.101z"/>
		</g>
		<g>
			<path style="fill:#2E353A;" d="M375.844,183.082c-0.058,0.507,0.312,0.918,0.826,0.918h9.14c0.514,0,0.977-0.411,1.035-0.918
				l2.041-18.038c0.058-0.507-0.312-1.043-0.826-1.043h-9.14c-0.514,0-0.977,0.536-1.035,1.043L375.844,183.082z"/>
			<polygon style="fill:#407BFF;" points="378.353,165.209 376.357,182.792 385.383,182.792 387.372,165.209 			"/>
			<path style="opacity:0.3;fill:#FFFFFF;enable-background:new    ;" d="M375.844,183.082c-0.058,0.507,0.312,0.918,0.826,0.918
				h8.14c0.514,0,0.977-0.411,1.035-0.918l2.041-18.038c0.058-0.507-0.312-1.043-0.826-1.043h-8.14
				c-0.514,0-0.977,0.536-1.035,1.043L375.844,183.082z"/>
		</g>
		<path style="opacity:0.2;enable-background:new    ;" d="M366.68,215.521c-0.68-0.52-1.3-1.03-1.85-1.52
			c-2.51-2.23-4.54-3.93-4.54-3.93l2.44-6.91l1.52-3.54C364.25,199.621,367.76,208.231,366.68,215.521z"/>
		<polygon style="fill:#E4897B;" points="382.331,410.146 375.671,411.322 372.939,402.24 370.447,393.904 378.127,391.222 
			380.357,401.24 		"/>
		<polygon style="opacity:0.2;enable-background:new    ;" points="380.393,401.446 372.971,402.423 370.463,393.996 
			378.135,391.268 		"/>
		<polygon style="fill:#E4897B;" points="337.863,413.001 331.099,413.001 329.988,403.582 328.983,394.94 337.012,393.634 
			337.467,403.887 		"/>
		<polygon style="opacity:0.2;enable-background:new    ;" points="337.467,404.096 329.988,403.767 328.983,395.033 
			337.012,393.68 		"/>
		<g>
			<g>
				<path style="fill:#407BFF;" d="M381.02,396.161l-10.95,1.93c-11.05-27.53-18.91-50.51-24.46-69.58
					c-2.99-10.29-5.32-19.44-7.11-27.56l0.5,29.97v68.08h-11.12c-27.05-129-7.88-158.48-7.88-158.48l32.36-5.53
					c1.23,4.83,2.16,12.66,2.71,18.11l1.46,10.7l12.65,65.32L381.02,396.161z"/>
			</g>
			<g style="opacity:0.5;enable-background:new    ;">
				<path style="fill:#FFFFFF;" d="M381.02,396.161l-10.95,1.93c-10.09-25.15-17.53-46.5-22.97-64.54c-0.51-1.71-1.01-3.39-1.5-5.04
					c-2.71-9.34-4.6-17.74-6.6-25.28v-0.02c0-0.76-0.34-1.52-0.51-2.26l0.51,29.97v68.08h-11.12
					c-16.52-78.79-15.8-120.45-12.74-140.95c1.96-13.07,4.86-17.53,4.86-17.53l32.36-5.53c1.23,4.83,2.16,12.66,2.71,18.11
					l0.44,3.22l1.02,7.48l12.65,65.32L381.02,396.161z"/>
			</g>
		</g>
		<g>
			<polygon style="fill:#407BFF;" points="368.353,396.738 381.936,392.235 381.752,398.012 370.519,401.595 			"/>
			<polygon style="opacity:0.6;fill:#FFFFFF;enable-background:new    ;" points="368.353,396.738 381.936,392.235 381.752,398.012 
				370.519,401.595 			"/>
		</g>
		<g>
			<polygon style="fill:#407BFF;" points="326.429,397.366 340.587,395.293 339.402,400.951 327.717,402.526 			"/>
			<polygon style="opacity:0.6;fill:#FFFFFF;enable-background:new    ;" points="326.429,397.366 340.587,395.293 339.402,400.951 
				327.717,402.526 			"/>
		</g>
		<path style="opacity:0.2;enable-background:new    ;" d="M347.1,333.551c-0.51-1.71-1.015-3.39-1.495-5.04
			c-2.71-9.34-4.605-17.74-6.605-25.28v-0.02l-1.145-13.88c0,0,6.903-15.25,4.313-25.98c0.24,0.61,4.811,12.3,3.011,23.98
			C345.179,287.331,344.3,308.411,347.1,333.551z"/>
		<path style="fill:#E4897B;" d="M337.863,413.001c0,0,0.667,8.409,0,9.243c-0.667,0.833-15.696,0.257-17.863-1.076
			c-2.167-1.333,1.667-3.575,3.833-3.672c2.167-0.097,7.415-3.227,7.266-4.495S337.863,413.001,337.863,413.001z"/>
		<path style="fill:#407BFF;" d="M326.429,416.376c0,0-2.929,3.375-1.804,5.625H339v2h-23
			C316,424.001,315.344,415.193,326.429,416.376z"/>
		<path style="fill:#E4897B;" d="M382.331,409.876c0,0,2.527,9.022,1.978,9.938c-0.549,0.915-15.519,2.365-17.845,1.335
			s1.171-3.767,3.305-4.154c2.134-0.387,6.22-4.435,5.901-5.672C375.352,410.085,382.331,409.876,382.331,409.876z"/>
		<path style="fill:#407BFF;" d="M372.191,415.536c0,0-2.449,3.738-1.031,5.816l14.245-1.932l0.269,1.982l-22.791,3.091
			C362.882,424.493,361.048,415.853,372.191,415.536z"/>
		<path style="opacity:0.2;enable-background:new    ;" d="M355.51,256.321l-40.37,1.73c1.96-13.07,4.86-17.53,4.86-17.53
			l32.36-5.53c1.23,4.83,2.16,12.66,2.71,18.11L355.51,256.321z"/>
		<g>
			<path style="fill:#EBB376;" d="M351.1,179.351c-0.08,0.07-0.17,0.14-0.26,0.19c-1.21,0.86-2.6,1.685-4.18,2.045
				c-4.42,1.02-7.44,0.415-9.41-1.585c-0.01,0-0.01,0-0.01,0c-2.76-3-3.45-8.315-3.06-14.725c0.17-2.94,0.59-5.497,1.4-7.488
				c0.01-0.02,0.01-0.094,0.02-0.114c0.04-0.08,0.07-0.192,0.11-0.272c1.21-2.78,3.22-4.581,6.43-5.341
				c1.11-0.26,2.37-0.405,3.79-0.425C358.43,151.506,360.68,172.211,351.1,179.351z"/>
			<path style="opacity:0.2;enable-background:new    ;" d="M350.84,179.541c-1.21,0.86-2.6,1.51-4.18,1.87
				c-4.42,1.02-7.44,0.27-9.41-1.76c2.17,0.48,5.09,0.66,7.93-0.65C346.97,178.181,348.96,178.601,350.84,179.541z"/>
			<path style="fill:#EBB376;" d="M352.11,190.831c0.77,3.56-3.84,5.01-3.84,5.01c-7.54-3.22-8.94-7.23-8.94-7.23
				c6.29-3.28,4.47-12.56,4.47-12.56l1.28,0.63l8.982,1.757c0,0-2.492,4.783-2.823,5.872c0,0.01-0.01,0.02-0.01,0.03
				C349.54,190.041,352.11,190.831,352.11,190.831z"/>
			<path style="fill:#2E353A;" d="M335.575,157.705c0,0-0.689,8.766,7.618,12.531c0,0,3.567,9.106,8.818,9.235
				c7.159,0.175,13.469-10.012,10.989-20.387C359.784,145.629,339.4,144.535,335.575,157.705z"/>
			<path style="fill:#EBB376;" d="M339.021,167.714c0.043-1.373,1.435-3.71,3.99-3.458c2.645,0.261,3.96,5.67-2.597,7.042
				C339.473,171.495,338.932,170.579,339.021,167.714z"/>
			<path style="fill:#2E353A;" d="M337.375,157.251c0,0-3.5,0.75-5.75-1.375s-1.625-7.125,2.875-8.125s7.191,1.51,7.596,3.88
				C342.5,154.001,340.906,157.4,337.375,157.251z"/>
			<path style="fill:#407BFF;" d="M333.754,149.626c-1.383,0-2.504,1.474-2.504,3.292c0,1.818,1.121,3.292,2.504,3.292
				s2.504-1.474,2.504-3.292C336.258,151.099,335.137,149.626,333.754,149.626z"/>
			<path style="fill:#2E353A;" d="M356,153.834c0,0,2.144-5,10.322-4.208c8.178,0.792,11.678,10.208,8.011,16.292
				c-3.667,6.083-1.833,9.61,0.25,10.763c2.083,1.153,2.523,4.82-0.822,6.32c-3.345,1.5-1.988,5.036,0,4.601
				c0,0-1.178,1.008-4.095,0.037c-2.917-0.971-1.833-4.721-0.333-6.388s-3.917-1.583-5.25-6.167
				c-1.333-4.583,1.083-11.027-2.917-10.847C357.167,164.417,354.75,156.917,356,153.834z"/>
		</g>
		<g>
			<path style="fill:#407BFF;" d="M335.561,187.602c0,0,7.286-3.929,15.279-1.182c7.993,2.747,6.188,8.081,6.188,8.081
				L335.561,187.602z"/>
			<path style="opacity:0.5;fill:#FFFFFF;enable-background:new    ;" d="M335.561,187.602c0,0,7.286-3.929,15.279-1.182
				c7.993,2.747,6.188,8.081,6.188,8.081L335.561,187.602z"/>
		</g>
		<g>
			<path style="fill:#407BFF;" d="M365.977,193.99c0,0-6.903-2.708-13.093-4.414c-4.827-1.194-9.741-2.048-14.683-2.547
				c-4.674-0.527-9.373-0.707-14.083-0.558c0.137,2.263,0.237,4.402,0.321,6.411c0.12,2.654,0.202,5.109,0.261,7.392
				c0.107,4.272,0.095,7.938-0.008,11.193c-0.255,8.703-1.192,14.488-2.562,21.071l-6.964,16.961l41.861,5.333l-2.374-16.671l0,0
				c6.944-20.222,9.921-30.869,11.04-36.914C366.918,194.517,365.977,193.99,365.977,193.99z"/>
			<path style="opacity:0.6;fill:#FFFFFF;enable-background:new    ;" d="M365.69,201.251c-0.56,3.02-1.58,7.19-3.33,13.14
				c-1.76,5.94-4.24,13.66-7.71,23.77l2.38,16.67l-2.88-0.37l-1.03-0.13l-5.51-0.7l-1-0.13l-5.23-0.66l-0.98-0.13l-6.98-0.89
				l-0.99-0.12l-8.68-1.11l-1-0.13l-7.58-0.96l6.96-16.96c1.37-6.59,2.31-12.37,2.56-21.07c0.03-0.77,0.05-1.56,0.06-2.38
				c0.05-2.64,0.03-5.55-0.05-8.82c-0.03-1.19-0.07-2.44-0.12-3.73c-0.03-1.18-0.08-2.4-0.14-3.66c-0.09-2.01-0.18-4.15-0.32-6.41
				c2.51-0.08,5.02-0.07,7.52,0.05c0.33,0.01,0.67,0.03,1,0.05c1.86,0.1,3.71,0.25,5.56,0.46c0.08,0.01,0.17,0.02,0.25,0.03
				c0.33,0.03,0.67,0.07,1,0.1c2.79,0.32,5.57,0.75,8.33,1.29c0.33,0.06,0.66,0.13,0.99,0.2c1.38,0.28,2.75,0.59,4.11,0.93
				c0.62,0.17,1.25,0.35,1.88,0.54c0.32,0.09,0.64,0.19,0.96,0.29c2.02,0.62,3.99,1.29,5.66,1.88c0.34,0.12,0.66,0.24,0.97,0.34
				c2.17,0.79,3.63,1.36,3.63,1.36S366.92,194.521,365.69,201.251z"/>
			<g>
				<g>
					<path style="fill:#407BFF;" d="M348.77,188.651c-0.28,6.19-1.48,22.8-6.78,45.25l-0.61,18.94l-0.98-0.13l0.6-18.94
						c5.34-22.66,6.52-39.31,6.78-45.32C348.11,188.511,348.44,188.581,348.77,188.651z"/>
				</g>
				<g>
					<path style="fill:#407BFF;" d="M347.2,233.751l0.41,19.88l-1-0.13l-0.42-19.92l0.04-0.09c4.46-12.02,7.46-34.53,8.53-43.37
						c0.32,0.09,0.64,0.19,0.96,0.29C354.64,199.381,351.64,221.691,347.2,233.751z"/>
				</g>
				<g>
					<path style="fill:#407BFF;" d="M352.18,235.421l1.97,19.04l-1.03-0.13l-1.97-19.09l0.07-0.13
						c4.89-10.18,8.73-33.25,10.16-42.82c0.34,0.12,0.66,0.24,0.97,0.34C360.88,202.331,357.06,225.131,352.18,235.421z"/>
				</g>
				<g>
					<path style="fill:#407BFF;" d="M339.45,187.161c-0.18,7.74-0.87,27.66-3.39,45.24l-2.64,19.42l-0.99-0.12l2.64-19.43
						c2.52-17.6,3.21-37.55,3.38-45.21C338.78,187.091,339.12,187.131,339.45,187.161z"/>
				</g>
				<g>
					<path style="fill:#407BFF;" d="M332.64,186.571c-0.1,10.47-0.59,35.68-2.99,44.86l-5.9,19.16l-1-0.13l5.94-19.3
						c2.34-8.96,2.84-34.26,2.95-44.64C331.97,186.531,332.31,186.551,332.64,186.571z"/>
				</g>
			</g>
			<g style="opacity:0.4;enable-background:new    ;">
				<g>
					<path style="fill:#FFFFFF;" d="M348.77,188.651c-0.28,6.19-1.48,22.8-6.78,45.25l-0.61,18.94l-0.98-0.13l0.6-18.94
						c5.34-22.66,6.52-39.31,6.78-45.32C348.11,188.511,348.44,188.581,348.77,188.651z"/>
				</g>
				<g>
					<path style="fill:#FFFFFF;" d="M347.2,233.751l0.41,19.88l-1-0.13l-0.42-19.92l0.04-0.09c4.46-12.02,7.46-34.53,8.53-43.37
						c0.32,0.09,0.64,0.19,0.96,0.29C354.64,199.381,351.64,221.691,347.2,233.751z"/>
				</g>
				<g>
					<path style="fill:#FFFFFF;" d="M352.18,235.421l1.97,19.04l-1.03-0.13l-1.97-19.09l0.07-0.13
						c4.89-10.18,8.73-33.25,10.16-42.82c0.34,0.12,0.66,0.24,0.97,0.34C360.88,202.331,357.06,225.131,352.18,235.421z"/>
				</g>
				<g>
					<path style="fill:#FFFFFF;" d="M339.45,187.161c-0.18,7.74-0.87,27.66-3.39,45.24l-2.64,19.42l-0.99-0.12l2.64-19.43
						c2.52-17.6,3.21-37.55,3.38-45.21C338.78,187.091,339.12,187.131,339.45,187.161z"/>
				</g>
				<g>
					<path style="fill:#FFFFFF;" d="M332.64,186.571c-0.1,10.47-0.59,35.68-2.99,44.86l-5.9,19.16l-1-0.13l5.94-19.3
						c2.34-8.96,2.84-34.26,2.95-44.64C331.97,186.531,332.31,186.551,332.64,186.571z"/>
				</g>
			</g>
			<path style="opacity:0.2;enable-background:new    ;" d="M324.75,209.091c0.05-2.64,0.03-5.55-0.05-8.82
				c-0.03-1.19-0.07-2.44-0.12-3.73c1.06-0.4,2.22-0.65,3.48-0.7C328.06,195.841,329.44,204.521,324.75,209.091z"/>
		</g>
		<path style="fill:#EBB376;" d="M318.053,231.229l3.064,8.321c0,0,2.424,0.536,0.88,5.829c-1.544,5.294-2.787,8.014-7.274,7.067
			c-4.487-0.946-5.795-1.682-5.121-2.88c0.674-1.198,5.956-7.603,5.956-7.603l-2.885-8.31L318.053,231.229z"/>
		<path style="fill:#407BFF;" d="M324.12,186.471c0,0,7.427,6.276,1.88,17.376c0,0-10.08,5.684-10.83,6.779
			c-0.75,1.095,6.221,23.715,6.221,23.715s-2.141,5.91-9.728,4.137c0,0-11.413-23.324-12.413-30.901
			C298.25,200.001,324.12,186.471,324.12,186.471z"/>
		<path style="opacity:0.5;fill:#FFFFFF;enable-background:new    ;" d="M324.12,186.471c0,0,7.427,6.276,1.88,17.376
			c0,0-10.08,5.684-10.83,6.779c-0.75,1.095,6.221,23.715,6.221,23.715s-2.141,5.91-9.728,4.137c0,0-11.413-23.324-12.413-30.901
			C298.25,200.001,324.12,186.471,324.12,186.471z"/>
	</g>
</g>
</svg>
